<?xml version="1.0" encoding="UTF-8"?>
<!DOCTYPE svg PUBLIC "-//W3C//DTD SVG 1.1//EN" "http://www.w3.org/Graphics/SVG/1.1/DTD/svg11.dtd">
<!-- Creator: CorelDRAW -->
<svg xmlns="http://www.w3.org/2000/svg" xml:space="preserve" width="8in" height="8in" style="shape-rendering:geometricPrecision; text-rendering:geometricPrecision; image-rendering:optimizeQuality; fill-rule:evenodd; clip-rule:evenodd"
viewBox="0 0 8 8"
 xmlns:xlink="http://www.w3.org/1999/xlink">
 <defs>
  <style type="text/css">
   <![CDATA[
    .fil3 {fill:url(#id0)}
    .fil0 {fill:url(#id1);fill-rule:nonzero}
    .fil2 {fill:url(#id2);fill-rule:nonzero}
    .fil1 {fill:url(#id3);fill-rule:nonzero}
   ]]>
  </style>
  <linearGradient id="id0" gradientUnits="userSpaceOnUse" x1="-0" y1="4" x2="8" y2="4">
   <stop offset="0" style="stop-color:#E4877C"/>
   <stop offset="1" style="stop-color:#B03686"/>
  </linearGradient>
  <linearGradient id="id1" gradientUnits="userSpaceOnUse" xlink:href="#id0" x1="3.45396" y1="5.74765" x2="4.54604" y2="5.74765">
  </linearGradient>
  <linearGradient id="id2" gradientUnits="userSpaceOnUse" xlink:href="#id0" x1="2.68196" y1="6.00979" x2="5.31804" y2="6.00979">
  </linearGradient>
  <linearGradient id="id3" gradientUnits="userSpaceOnUse" xlink:href="#id0" x1="1.44" y1="3.73785" x2="6.56" y2="3.73785">
  </linearGradient>
 </defs>
 <g id="Layer_x0020_1">
  <metadata id="CorelCorpID_0Corel-Layer"/>
  <path class="fil0" d="M3.53396 5.4055l0.932079 0c0.0441811,0 0.08,0.0358189 0.08,0.08l0 0.524291c0,0.0441811 -0.0358189,0.08 -0.08,0.08l-0.932079 0c-0.0441811,0 -0.08,-0.0358189 -0.08,-0.08l0 -0.524291c0,-0.0441811 0.0358189,-0.08 0.08,-0.08z"/>
  <path class="fil1" d="M1.52 1.9102l4.96 0c0.0441811,0 0.08,0.0358189 0.08,0.08l0 3.4953c0,0.0441811 -0.0358189,0.08 -0.08,0.08l-4.96 0c-0.0441811,0 -0.08,-0.0358189 -0.08,-0.08l0 -3.4953c0,-0.0441811 0.0358189,-0.08 0.08,-0.08zm2.41326 1.74767c0.00959055,-0.12852 0.0421063,-0.25065 0.0934724,-0.362315l0.315665 0c-0.0246417,0.113445 -0.0401063,0.235268 -0.0447008,0.362315l-0.364437 0zm0.524528 0.16l1.06419 0c-0.00495669,0.128488 -0.0217598,0.250524 -0.0483622,0.362315l-0.967461 0c-0.0266063,-0.111791 -0.0434055,-0.233827 -0.0483622,-0.362315zm1.17957 0.362315c0.0246378,-0.113445 0.0401024,-0.235268 0.0447008,-0.362315l0.364433 0c-0.00959055,0.128516 -0.0421102,0.25065 -0.0934724,0.362315l-0.315661 0zm0.214894 0.420063c0.220701,-0.220705 0.357217,-0.525606 0.357217,-0.862378 0,-0.336772 -0.136512,-0.641677 -0.357217,-0.862378 -0.220701,-0.220705 -0.525606,-0.357217 -0.862378,-0.357217 -0.336772,0 -0.641677,0.136512 -0.862378,0.357217 -0.220705,0.220701 -0.357217,0.525606 -0.357217,0.862378 0,0.336772 0.136516,0.641673 0.357217,0.862378 0.220701,0.220701 0.525606,0.357217 0.862378,0.357217 0.336772,0 0.641677,-0.136516 0.862378,-0.357217zm-1.919 -0.782378l0.364437 0c0.00459843,0.127047 0.0200591,0.248866 0.0447008,0.362315l-0.315665 0c-0.0513622,-0.111665 -0.0838819,-0.233799 -0.0934724,-0.362315zm0.620063 0.522315l0.87311 0c-0.0213583,0.0597913 -0.0458268,0.115287 -0.0729646,0.165689 -0.0970079,0.180154 -0.22587,0.291591 -0.363591,0.291591 -0.137717,0 -0.266583,-0.111437 -0.363587,-0.291591 -0.0271417,-0.0504016 -0.0516063,-0.105898 -0.0729685,-0.165689zm0.940768 0.241311c0.0388425,-0.0721378 0.0727677,-0.153201 0.10076,-0.241311l0.266906 0c-0.0364291,0.0526378 -0.0775039,0.101811 -0.122626,0.146937 -0.0931457,0.0931457 -0.203559,0.169031 -0.326028,0.222445 0.0289488,-0.0388661 0.0560197,-0.0817047 0.0809882,-0.128071zm-1.0363 -0.923626c0.00495669,-0.128488 0.0217559,-0.250528 0.0483622,-0.362315l0.967461 0c0.0266063,0.111791 0.0434055,0.233827 0.0483622,0.362315l-1.06419 0zm1.22428 0c-0.00459843,-0.127047 -0.0200591,-0.24887 -0.0447008,-0.362315l0.315661 0c0.0513661,0.111665 0.0838819,0.233795 0.0934724,0.362315l-0.364433 0zm-1.56406 0.682315l0.266906 0c0.0279961,0.0881102 0.0619213,0.169173 0.100764,0.241311 0.0249646,0.0463661 0.0520394,0.0892047 0.0809843,0.128071 -0.122469,-0.0534134 -0.232882,-0.129299 -0.326028,-0.222445 -0.045122,-0.045126 -0.0861969,-0.0942992 -0.122626,-0.146937zm0.266906 -1.20463l-0.266909 0c0.0364291,-0.0526378 0.0775039,-0.101811 0.12263,-0.146937 0.0931457,-0.0931496 0.203559,-0.169035 0.326028,-0.222445 -0.0289449,0.0388661 -0.0560197,0.0817047 -0.0809843,0.128071 -0.0388425,0.0721378 -0.0727677,0.153201 -0.100764,0.241311zm1.04153 0l-0.873114 0c0.0213622,-0.0597913 0.0458268,-0.115287 0.0729685,-0.165689 0.0970039,-0.180157 0.22587,-0.291591 0.363587,-0.291591 0.137717,0 0.266587,0.111437 0.363591,0.291591 0.0271417,0.0504016 0.0516063,0.105898 0.0729685,0.165689zm0.168417 0c-0.0279961,-0.0881102 -0.0619213,-0.169173 -0.100764,-0.241311 -0.0249646,-0.0463661 -0.0520394,-0.0892047 -0.0809843,-0.128071 0.122465,0.0534134 0.232878,0.129299 0.326024,0.222445 0.045126,0.045126 0.0862008,0.0942992 0.12263,0.146937l-0.266906 0zm-2.03073 1.25477c0.0441811,0 0.08,-0.0358189 0.08,-0.08 0,-0.0441811 -0.0358189,-0.08 -0.08,-0.08l-1.69356 0c-0.0441811,0 -0.08,0.0358189 -0.08,0.08 0,0.0441811 0.0358189,0.08 0.08,0.08l1.69356 0zm0 -0.572476c0.0441811,0 0.08,-0.0358189 0.08,-0.08 0,-0.0441811 -0.0358189,-0.08 -0.08,-0.08l-1.69356 0c-0.0441811,0 -0.08,0.0358189 -0.08,0.08 0,0.0441811 0.0358189,0.08 0.08,0.08l1.69356 0zm-1.69356 -0.572469l1.69356 0c0.0441811,0 0.08,-0.0358189 0.08,-0.08 0,-0.0441811 -0.0358189,-0.08 -0.08,-0.08l-1.69356 0c-0.0441811,0 -0.08,0.0358189 -0.08,0.08 0,0.0441811 0.0358189,0.08 0.08,0.08z"/>
  <path class="fil2" d="M2.76196 5.92979c-0.0441811,0 -0.08,0.0358189 -0.08,0.08 0,0.0441811 0.0358189,0.08 0.08,0.08l2.47607 0c0.0441811,0 0.08,-0.0358189 0.08,-0.08 0,-0.0441811 -0.0358189,-0.08 -0.08,-0.08l-2.47607 0z"/>
  <path class="fil3" d="M1.28 0l5.44001 0c0.704,0 1.28,0.575996 1.28,1.28l0 5.44001c0,0.704 -0.575996,1.28 -1.28,1.28l-5.44001 0c-0.704,0 -1.28,-0.575996 -1.28,-1.28l0 -5.44001c0,-0.704 0.575996,-1.28 1.28,-1.28zm0 0.479996l5.44001 0c0.44,0 0.8,0.36 0.8,0.8l0 5.44001c0,0.44 -0.36,0.8 -0.8,0.8l-5.44001 0c-0.44,0 -0.8,-0.36 -0.8,-0.8l0 -5.44001c0,-0.44 0.36,-0.8 0.8,-0.8z"/>
 </g>
</svg>
