<svg width="24" height="24" viewBox="0 0 24 24" fill="none" xmlns="http://www.w3.org/2000/svg">
<path d="M9.492 3.67944L8.90625 3.74994C8.90625 3.74994 6.27825 4.03719 4.359 5.57844H4.3365L4.3125 5.60094C3.882 5.99694 3.6945 6.48369 3.39825 7.19544C3.04904 8.05176 2.75175 8.92835 2.508 9.82044C1.9515 11.8327 1.5 14.2702 1.5 16.4999V16.6874L1.59375 16.8749C2.28825 18.0937 3.52125 18.8699 4.66425 19.4062C5.8065 19.9424 6.79425 20.2267 7.47675 20.2499L7.92225 20.2732L8.15625 19.8749L8.97675 18.4214C9.84675 18.6179 10.8488 18.7499 12 18.7499C13.1512 18.7499 14.1533 18.6179 15.0233 18.4214L15.8438 19.8749L16.0785 20.2732L16.5233 20.2499C17.2058 20.2267 18.1935 19.9424 19.3358 19.4062C20.4788 18.8699 21.7118 18.0937 22.4062 16.8749L22.5 16.6874V16.4999C22.5 14.2702 22.0485 11.8327 21.492 9.82044C21.2483 8.92835 20.951 8.05176 20.6017 7.19544C20.3055 6.48294 20.118 5.99694 19.6875 5.60169L19.6642 5.57769H19.6403C17.7225 4.03719 15.0938 3.74994 15.0938 3.74994L14.508 3.67944L14.2965 4.21869C14.2965 4.21869 14.0797 4.76619 13.9455 5.39094C13.3007 5.30198 12.6509 5.25488 12 5.24994C11.5987 5.24994 10.905 5.27619 10.0545 5.39094C9.96579 4.99219 9.84824 4.60041 9.70275 4.21869L9.492 3.67944ZM8.46075 5.39094C8.493 5.49594 8.52525 5.58669 8.5545 5.67219C7.58475 5.91219 6.5505 6.27819 5.60175 6.86694L6.39825 8.13294C8.34375 6.92544 11.1382 6.74994 12 6.74994C12.861 6.74994 15.6562 6.92544 17.6017 8.13294L18.3983 6.86694C17.4495 6.27819 16.4152 5.91219 15.4455 5.67144C15.4747 5.58669 15.507 5.49594 15.5392 5.39019C16.239 5.53119 17.5755 5.85369 18.6795 6.72669C18.6735 6.72969 18.9607 7.16319 19.2188 7.78119C19.4827 8.41719 19.7752 9.26394 20.0392 10.2187C20.5462 12.0494 20.9445 14.2792 20.9767 16.2419C20.5042 16.9627 19.629 17.6129 18.7028 18.0472C18.1219 18.3217 17.5073 18.5184 16.875 18.6322L16.5 17.9999C16.7227 17.9174 16.9425 17.8274 17.133 17.7419C18.2872 17.2349 18.9142 16.6874 18.9142 16.6874L17.9295 15.5624C17.9295 15.5624 17.508 15.9494 16.5233 16.3829C15.54 16.8164 14.0362 17.2499 12 17.2499C9.96375 17.2499 8.46075 16.8164 7.47675 16.3829C6.492 15.9494 6.0705 15.5624 6.0705 15.5624L5.08575 16.6874C5.08575 16.6874 5.71275 17.2349 6.867 17.7419C7.0575 17.8274 7.27725 17.9182 7.5 17.9999L7.125 18.6329C6.49236 18.5187 5.87755 18.3215 5.2965 18.0464C4.371 17.6129 3.495 16.9627 3.024 16.2419C3.0555 14.2792 3.45375 12.0494 3.9615 10.2187C4.18586 9.39056 4.4596 8.57661 4.78125 7.78119C5.03925 7.16319 5.3265 6.72969 5.3205 6.72669C6.4245 5.85369 7.761 5.53119 8.46075 5.39094V5.39094ZM9.375 10.4999C8.79525 10.4999 8.28225 10.8307 7.96875 11.2499C7.65525 11.6692 7.5 12.1844 7.5 12.7499C7.5 13.3154 7.65525 13.8307 7.96875 14.2499C8.28225 14.6692 8.79525 14.9999 9.375 14.9999C9.95475 14.9999 10.4677 14.6692 10.7812 14.2499C11.0948 13.8307 11.25 13.3154 11.25 12.7499C11.25 12.1844 11.0948 11.6692 10.7812 11.2499C10.4677 10.8307 9.95475 10.4999 9.375 10.4999ZM14.625 10.4999C14.0452 10.4999 13.5323 10.8307 13.2188 11.2499C12.9052 11.6692 12.75 12.1844 12.75 12.7499C12.75 13.3154 12.9052 13.8307 13.2188 14.2499C13.5323 14.6692 14.0452 14.9999 14.625 14.9999C15.2048 14.9999 15.7177 14.6692 16.0312 14.2499C16.3448 13.8307 16.5 13.3154 16.5 12.7499C16.5 12.1844 16.3448 11.6692 16.0312 11.2499C15.7177 10.8307 15.2048 10.4999 14.625 10.4999ZM9.375 11.9999C9.41625 11.9999 9.46875 12.0149 9.5625 12.1409C9.65625 12.2662 9.75 12.4859 9.75 12.7499C9.75 13.0139 9.65625 13.2337 9.5625 13.3597C9.46875 13.4849 9.41625 13.4999 9.375 13.4999C9.33375 13.4999 9.28125 13.4849 9.1875 13.3589C9.06347 13.1802 8.99796 12.9675 9 12.7499C9 12.4859 9.09375 12.2662 9.1875 12.1402C9.28125 12.0149 9.33375 11.9999 9.375 11.9999ZM14.625 11.9999C14.6662 11.9999 14.7188 12.0149 14.8125 12.1409C14.9062 12.2662 15 12.4859 15 12.7499C15 13.0139 14.9062 13.2337 14.8125 13.3597C14.7188 13.4849 14.6662 13.4999 14.625 13.4999C14.5838 13.4999 14.5312 13.4849 14.4375 13.3589C14.3135 13.1802 14.248 12.9675 14.25 12.7499C14.25 12.4859 14.3438 12.2662 14.4375 12.1402C14.5312 12.0149 14.5838 11.9999 14.625 11.9999Z" fill="#F9F9F9"/>
</svg>
